# xmcd
#
# Track frame offsets:
# 150
# 8379
# 23994
# 41995
# 62698
# 78699
# 96144
# 114484
# 133436
# 150885
# 166287
# 183805
# 205420
# 208141
# 225255
# 242080
# 257073
# 276045
# 294508
#
# Disc length: 4174 seconds
#
#
# Revision: 0
# Processed by: cddbd v1.5.2PL0 Copyright (c) Steve Scherf et al.
# Submitted via: FreeRIP 2.945 
#
DISCID=03104c13
DTITLE=213 -nate dog-snoop dog-warren g) - the hard way
DYEAR=1900
DGENRE=Hip-Hop
TTITLE0=intro
TTITLE1=twist yo body
TTITLE2=absolutely
TTITLE3=keep it gangsta
TTITLE4=run on up
TTITLE5=groupie luv
TTITLE6=lonely girl
TTITLE7=anoter sumer
TTITLE8=213 tha gangsta clicc
TTITLE9=gotta find a way
TTITLE10=ups and downs
TTITLE11=joysticc
TTITLE12=rick james (interlude)
TTITLE13=mary jane
TTITLE14=mlk
TTITLE15=lil girl
TTITLE16=my dirty h*
TTITLE17=appreciation
TTITLE18=so fly
EXTD=
EXTT0=
EXTT1=
EXTT2=
EXTT3=
EXTT4=
EXTT5=
EXTT6=
EXTT7=
EXTT8=
EXTT9=
EXTT10=
EXTT11=
EXTT12=
EXTT13=
EXTT14=
EXTT15=
EXTT16=
EXTT17=
EXTT18=
PLAYORDER=
